<?xml version="1.0" encoding="UTF-8"?> <svg xmlns="http://www.w3.org/2000/svg" xmlns:xlink="http://www.w3.org/1999/xlink" id="aanbod" width="55.704" height="64.007" viewBox="0 0 55.704 64.007"><defs><clipPath id="clip-path"><rect id="Rectangle_61" data-name="Rectangle 61" width="55.704" height="64.007" transform="translate(0 0)" fill="#d52528"></rect></clipPath></defs><g id="Group_74" data-name="Group 74" clip-path="url(#clip-path)"><path id="Path_129" data-name="Path 129" d="M10.543,50.527a3.06,3.06,0,1,0,3.06,3.06A3.059,3.059,0,0,0,10.543,50.527Zm0,4.18a1.12,1.12,0,1,1,1.12-1.12,1.119,1.119,0,0,1-1.12,1.12" fill="#d52528"></path><path id="Path_130" data-name="Path 130" d="M54.323,19.327,49,14.007a4.608,4.608,0,0,0-2-1.16,4.593,4.593,0,0,0-1.45-1.53l-6.3-4.09a4.729,4.729,0,0,0-2.23-.74,4.479,4.479,0,0,0-1.78-1.26l-7-2.7a4.672,4.672,0,0,0-2.309-.27,4.772,4.772,0,0,0-2-.86L16.5.207a4.822,4.822,0,0,0-2.351.24,4.247,4.247,0,0,0-2.139-.44L4.5.467a5,5,0,0,0-4.49,5.34l2.22,53.38A5.229,5.229,0,0,0,3.9,62.827a4.474,4.474,0,0,0,3,1.18h.271l7.51-.45a4.629,4.629,0,0,0,3.46-2,4.678,4.678,0,0,0,1.61-1l34.569-34.55a4.73,4.73,0,0,0,0-6.68m-9.789-6.38a2.808,2.808,0,0,1,1,1.12A2.85,2.85,0,0,1,45.8,15.4a.705.705,0,0,0,0,.13,2.949,2.949,0,0,1-.1.51v.15a2.752,2.752,0,0,1-.279.6l-23.29,35.72,15.859-41.17a4.694,4.694,0,0,0,.25-2.48ZM15.7,21.007l-13.07,1.11-.149-3.54h.129l12.941-1.06Zm-13,3,13.081-1,.259,6.24L2.973,30.3Zm31.88-17a2.731,2.731,0,0,1,1.486,3.564l-.015.036-15,38.7,6.8-42.49a3.916,3.916,0,0,0,0-.81,1.922,1.922,0,0,0,0-.24,3.677,3.677,0,0,0-.09-.66.855.855,0,0,0,0-.16,4.226,4.226,0,0,0-.191-.6Zm-11-3.72a2.719,2.719,0,0,1,1.451.72,3.451,3.451,0,0,1,.44.51l.05.09a3.583,3.583,0,0,1,.24.48.713.713,0,0,1,0,.16,3.621,3.621,0,0,1,.11.46v.17a3.421,3.421,0,0,1,0,.64L19.2,48.567,16.984,4.5a4.7,4.7,0,0,0-.781-2.37Zm-19-.92,7.511-.45a2.556,2.556,0,0,1,1.87.68,3.317,3.317,0,0,1,1,2.28l.439,10.67-13,1.08-.459-10.9A3.079,3.079,0,0,1,4.624,2.4Zm10,59.22-7.509.45a2.549,2.549,0,0,1-1.871-.68,3.266,3.266,0,0,1-1-2.28L3.054,32.237l13.07-1.08,1.13,27.13a1.352,1.352,0,0,1,0,.18v.32a3.694,3.694,0,0,1-.11.53,3.307,3.307,0,0,1-.4.93,2.766,2.766,0,0,1-2.16,1.37Zm38.361-37-29.65,29.7,6.94-10.67,16.749-25.76a4.543,4.543,0,0,0,.39-.76.226.226,0,0,1,.071-.19,5.009,5.009,0,0,0,.219-.77,4.3,4.3,0,0,0,.06-.62l5.21,5.21a2.781,2.781,0,0,1,.011,3.91Z" fill="#d52528"></path></g></svg> 