<?xml version="1.0" encoding="UTF-8"?> <svg xmlns="http://www.w3.org/2000/svg" xmlns:xlink="http://www.w3.org/1999/xlink" width="70" height="75.9" viewBox="0 0 70 75.9"><defs><clipPath id="clip-path"><rect id="Rectangle_43" data-name="Rectangle 43" width="70" height="75.9" fill="#d52528"></rect></clipPath></defs><g id="Group_64" data-name="Group 64" transform="translate(0 0)"><g id="Group_48" data-name="Group 48" transform="translate(0 0)" clip-path="url(#clip-path)"><path id="Path_122" data-name="Path 122" d="M22.4,22.065a6.3,6.3,0,1,0,6.3-6.3,6.3,6.3,0,0,0-6.3,6.3M42.014,15.9a.62.62,0,0,1,.013-.136h-2.5V28.489a7.855,7.855,0,0,1,6.718,6.07h1.623V21.6a.933.933,0,0,1-.136.013A5.716,5.716,0,0,1,42.014,15.9Zm1.537-.136h4.315v4.314a.933.933,0,0,0-.136-.013A4.167,4.167,0,0,1,43.564,15.9a.625.625,0,0,0-.013-.136m-4.026-1.55h9.116a.776.776,0,0,1,.775.775V23.3h3.141c3.185.022,5.174,1.73,5.174,4.972v6.285H60.1a5.044,5.044,0,0,1,5,5.058l.016,7.6h1.98A2.913,2.913,0,0,1,70,50.121V59.49A2.914,2.914,0,0,1,67.094,62.4H65.142l.015,8.442h0a5.039,5.039,0,0,1-4.994,5.054v0L5,75.9a5.049,5.049,0,0,1-5-5.058L0,29.706a6.423,6.423,0,0,1,6.406-6.4h.772V9.334a.776.776,0,0,1,.775-.775h10.08l0-7.784A.777.777,0,0,1,18.8,0H38.75a.777.777,0,0,1,.775.775l0,13.44Zm9.891,10.637v9.71h6.765V28.274c0-2.391-1.306-3.41-3.644-3.425Zm-4.764,9.71H39.525V30.046a6.315,6.315,0,0,1,5.127,4.517m7.49,1.547H60.1a3.5,3.5,0,0,1,3.458,3.511l.015,7.6H47.86a7.592,7.592,0,0,0,0,15.182H63.6l.016,8.442h0a3.487,3.487,0,0,1-3.445,3.51v0H5A3.49,3.49,0,0,1,1.55,70.839V33.87A6.4,6.4,0,0,0,6.4,36.109H52.142ZM7.177,24.852H6.406a4.855,4.855,0,1,0,0,9.71h.772Zm1.55,9.71h2.328a7.854,7.854,0,0,1,6.788-11.786c.06,0,.123,0,.189,0V10.112H14.566a.912.912,0,0,1,.013.136,5.715,5.715,0,0,1-5.716,5.715.686.686,0,0,1-.136-.012Zm4.194,0h5.111V32.307a2.321,2.321,0,0,1-1.8.876v0a2.428,2.428,0,0,1-2.29-1.832l-.6-.006a.772.772,0,0,1,.013-1.543l.607.006a2.436,2.436,0,0,1,2.258-1.75.772.772,0,0,1,.013,1.544c-.76.006-1.146,1.135-.576,1.764a.767.767,0,0,0,.569.266v0a.938.938,0,0,0,.841-1h0a2.6,2.6,0,0,1,.961-2.071V24.327A6.309,6.309,0,0,0,12.922,34.562Zm6.658,0V7.389a.933.933,0,0,0,.136.013,5.716,5.716,0,0,0,5.716-5.716.625.625,0,0,0-.013-.136h6.715a1.049,1.049,0,0,0-.012.136A5.716,5.716,0,0,0,37.836,7.4a.621.621,0,0,0,.136-.013v27.17ZM49.445,51.108a3.78,3.78,0,1,0,2.672,6.453,3.779,3.779,0,0,0-2.672-6.453m1.578,2.2a2.231,2.231,0,1,0,0,3.156,2.233,2.233,0,0,0,0-3.156M67.1,48.767H47.86a6.042,6.042,0,0,0,0,12.083H67.1a1.364,1.364,0,0,0,1.356-1.357V50.124A1.362,1.362,0,0,0,67.1,48.768ZM8.728,14.424a.914.914,0,0,1,.136-.012,4.167,4.167,0,0,0,4.165-4.166.63.63,0,0,1,.013-.136H8.728ZM33.662,1.551a.934.934,0,0,1,.012.136A4.168,4.168,0,0,0,37.84,5.853a.686.686,0,0,1,.136.012V1.551ZM19.58,5.865a1.036,1.036,0,0,1,.136-.012,4.167,4.167,0,0,0,4.165-4.166.63.63,0,0,1,.013-.136H19.58Zm9.888,16.2v.016h0a2.469,2.469,0,0,1-2.389,2.546v0a2.429,2.429,0,0,1-2.29-1.831l-.594-.006a.772.772,0,0,1,.013-1.543l.607.006a2.435,2.435,0,0,1,2.258-1.749.772.772,0,0,1,.012,1.543c-.762.006-1.145,1.136-.576,1.765a.772.772,0,0,0,.569.266v0a.939.939,0,0,0,.842-1h0v-.028h0a2.469,2.469,0,0,1,2.388-2.547v0a2.429,2.429,0,0,1,2.29,1.832l.594.006a.772.772,0,0,1-.012,1.543l-.607-.006a2.434,2.434,0,0,1-2.258,1.749.772.772,0,0,1-.013-1.543c.762-.006,1.145-1.135.576-1.764a.77.77,0,0,0-.569-.266v0a.939.939,0,0,0-.841,1h0Zm-6.32,5.548a7.848,7.848,0,1,1,11.1,0,7.848,7.848,0,0,1-11.1,0" transform="translate(0 0)" fill="#d52528" fill-rule="evenodd"></path></g></g></svg> 