<?xml version="1.0" encoding="UTF-8"?> <svg xmlns="http://www.w3.org/2000/svg" xmlns:xlink="http://www.w3.org/1999/xlink" width="86.8" height="58.139" viewBox="0 0 86.8 58.139"><defs><clipPath id="clip-path"><rect id="Rectangle_28" data-name="Rectangle 28" width="30.883" height="30.883" fill="#d52528"></rect></clipPath></defs><g id="e-tools" transform="translate(-114 -1746)"><g id="Group_35" data-name="Group 35" transform="translate(114 1746)"><g id="Group_36" data-name="Group 36" transform="translate(0 0)"><path id="Path_90" data-name="Path 90" d="M82.746,50.963h-68.6a.947.947,0,0,1-.946-.947V4.54A4.544,4.544,0,0,1,17.744,0H79.153a4.545,4.545,0,0,1,4.539,4.54V50.016a.947.947,0,0,1-.946.947M15.1,49.069H81.8V4.54a2.649,2.649,0,0,0-2.646-2.646H17.744A2.649,2.649,0,0,0,15.1,4.54Z" transform="translate(-5.049)" fill="#d52528"></path><path id="Path_91" data-name="Path 91" d="M78.793,88.512H8.007A8.016,8.016,0,0,1,0,80.5v-.116a.946.946,0,0,1,.946-.947H85.854a.946.946,0,0,1,.946.947V80.5a8.016,8.016,0,0,1-8.006,8.008M1.949,81.336a6.123,6.123,0,0,0,6.058,5.284H78.793a6.123,6.123,0,0,0,6.057-5.284Z" transform="translate(0 -30.373)" fill="#d52528"></path></g></g><g id="Group_38" data-name="Group 38" transform="translate(141.99 1756.572)"><g id="Group_37" data-name="Group 37" transform="translate(0 0)" clip-path="url(#clip-path)"><path id="Path_92" data-name="Path 92" d="M23.8,28.553a5.786,5.786,0,0,1-4.732-2.4.846.846,0,1,1,1.343-1.03,4.439,4.439,0,0,0,5.564,1.232c.023-.012.05-.024.073-.034a2.033,2.033,0,0,0,1.12-2.142A2.578,2.578,0,0,0,25.4,22.022s-1.77-.528-3.514-1.045a3.6,3.6,0,0,1-2.9-3.684c.009-.888.4-3.762,4.922-3.762h.118a4.965,4.965,0,0,1,4.842,3.351.847.847,0,0,1-1.627.473,3.264,3.264,0,0,0-3.234-2.13c-1.525-.012-3.308.333-3.328,2.087-.008.759.186,1.6,1.69,2.042,1.746.517,3.517,1.045,3.517,1.045a4.265,4.265,0,0,1,2.971,3.626,3.756,3.756,0,0,1-2.129,3.847,6.6,6.6,0,0,1-2.925.681" transform="translate(-8.455 -6.055)" fill="#d52528"></path><path id="Path_93" data-name="Path 93" d="M27.476,12.977a.847.847,0,0,1-.847-.846V9.353a.847.847,0,0,1,1.694,0v2.777a.847.847,0,0,1-.847.846" transform="translate(-11.916 -3.807)" fill="#d52528"></path><path id="Path_94" data-name="Path 94" d="M27.476,42.442a.847.847,0,0,1-.847-.846V38.818a.847.847,0,0,1,1.694,0V41.6a.847.847,0,0,1-.847.846" transform="translate(-11.916 -16.992)" fill="#d52528"></path><path id="Path_95" data-name="Path 95" d="M15.441,30.883A15.441,15.441,0,1,1,30.883,15.441,15.458,15.458,0,0,1,15.441,30.883m0-29.19A13.748,13.748,0,1,0,29.189,15.441,13.764,13.764,0,0,0,15.441,1.693" transform="translate(0 0)" fill="#d52528"></path></g></g></g></svg> 