<?xml version="1.0" encoding="UTF-8"?> <svg xmlns="http://www.w3.org/2000/svg" xmlns:xlink="http://www.w3.org/1999/xlink" id="ervaring" width="47.357" height="60" viewBox="0 0 47.357 60"><defs><clipPath id="clip-path"><rect id="Rectangle_64" data-name="Rectangle 64" width="47.357" height="60" fill="#d52528"></rect></clipPath></defs><g id="Group_80" data-name="Group 80" transform="translate(0 0)" clip-path="url(#clip-path)"><path id="Path_133" data-name="Path 133" d="M40.568,40.256a23.679,23.679,0,1,0-33.779,0L.462,51.214a.85.85,0,0,0,.9,1.258l8.516-1.719,2.77,8.234a.849.849,0,0,0,.721.575c.028,0,.057,0,.085,0a.851.851,0,0,0,.736-.425l6.887-11.93a23.7,23.7,0,0,0,5.2,0l7.138,12.363a.851.851,0,0,0,.736.425c.028,0,.056,0,.085,0a.851.851,0,0,0,.721-.575l2.77-8.234,8.516,1.719a.85.85,0,0,0,.9-1.258Zm-26.9,16.405L11.255,49.5a.851.851,0,0,0-.974-.562l-7.4,1.494,5.182-8.976a23.613,23.613,0,0,0,11.214,5.486ZM1.7,23.678A21.978,21.978,0,1,1,23.679,45.656,22,22,0,0,1,1.7,23.678m35.626,25.7a.85.85,0,0,0-.974.562L33.944,57.1,28.083,46.943A23.613,23.613,0,0,0,39.3,41.457l5.433,9.41ZM23.679,6.09A17.588,17.588,0,1,0,41.267,23.678,17.609,17.609,0,0,0,23.679,6.09m0,33.475A15.888,15.888,0,1,1,39.566,23.678,15.905,15.905,0,0,1,23.679,39.565M35.115,21.029a.85.85,0,0,0-.757-.586L27.125,20,24.47,13.259a.85.85,0,0,0-1.582,0L20.232,20,13,20.443a.85.85,0,0,0-.489,1.505L18.1,26.558l-1.815,7.016a.85.85,0,0,0,1.28.93l6.111-3.9L29.79,34.5a.85.85,0,0,0,1.28-.93l-1.815-7.016,5.593-4.609a.849.849,0,0,0,.267-.918m-7.36,4.56a.849.849,0,0,0-.282.869l1.41,5.45-4.748-3.025a.849.849,0,0,0-.914,0l-4.748,3.025,1.41-5.45a.85.85,0,0,0-.282-.869l-4.344-3.58,5.619-.343a.85.85,0,0,0,.739-.537l2.064-5.237,2.063,5.238a.851.851,0,0,0,.739.537l5.619.343Z" transform="translate(0 0)" fill="#d52528"></path></g></svg> 