<?xml version="1.0" encoding="UTF-8"?> <svg xmlns="http://www.w3.org/2000/svg" xmlns:xlink="http://www.w3.org/1999/xlink" id="kluizen" width="70" height="67.169" viewBox="0 0 70 67.169"><defs><clipPath id="clip-path"><rect id="Rectangle_42" data-name="Rectangle 42" width="70" height="67.169" fill="#d52528"></rect></clipPath></defs><g id="Group_46" data-name="Group 46" clip-path="url(#clip-path)"><path id="Path_118" data-name="Path 118" d="M70,0H0V60.3H3.813l-2.9,6.865H11.957L13.889,60.3H55.572L57.5,67.169H68.548l-2.9-6.865H70ZM10.876,65.741H3.067l2.3-5.437h7.042Zm55.519,0H58.586L57.057,60.3H64.1Zm2.177-6.865H1.43V1.429H68.571V58.875" fill="#d52528"></path><path id="Path_119" data-name="Path 119" d="M8.994,57.743h54.4a3.629,3.629,0,0,0,3.624-3.624V8.235A3.63,3.63,0,0,0,63.392,4.61H8.994A3.629,3.629,0,0,0,5.369,8.235V54.119a3.629,3.629,0,0,0,3.625,3.624M6.8,8.235a2.2,2.2,0,0,1,2.2-2.2h54.4a2.2,2.2,0,0,1,2.2,2.2V54.119a2.2,2.2,0,0,1-2.2,2.2H8.994a2.2,2.2,0,0,1-2.2-2.2V8.235" transform="translate(-1.193 -1.024)" fill="#d52528"></path><path id="Path_120" data-name="Path 120" d="M17.259,40.1v1.577h1.428V40.1a6.034,6.034,0,0,0,5.245-5.286h1.559V33.381H23.932A6.034,6.034,0,0,0,18.687,28.1V26.519H17.259V28.1a6.033,6.033,0,0,0-5.245,5.285H10.454V34.81h1.559A6.033,6.033,0,0,0,17.259,40.1m.714-10.617A4.618,4.618,0,1,1,13.4,34.1a4.6,4.6,0,0,1,4.576-4.618" transform="translate(-2.323 -5.893)" fill="#d52528"></path><path id="Path_121" data-name="Path 121" d="M48.605,26.5H65.144a3,3,0,0,0,0-5.992H48.605a3,3,0,0,0,0,5.992m0-4.563H65.144a1.568,1.568,0,0,1,0,3.135H48.605a1.568,1.568,0,0,1,0-3.135" transform="translate(-10.137 -4.558)" fill="#d52528"></path><rect id="Rectangle_33" data-name="Rectangle 33" width="3.106" height="3.131" transform="translate(36.947 25.68)" fill="#d52528"></rect><rect id="Rectangle_34" data-name="Rectangle 34" width="3.106" height="3.131" transform="translate(45.184 25.68)" fill="#d52528"></rect><rect id="Rectangle_35" data-name="Rectangle 35" width="3.105" height="3.131" transform="translate(53.422 25.68)" fill="#d52528"></rect><rect id="Rectangle_36" data-name="Rectangle 36" width="3.106" height="3.131" transform="translate(36.947 32.284)" fill="#d52528"></rect><rect id="Rectangle_37" data-name="Rectangle 37" width="3.106" height="3.131" transform="translate(45.184 32.284)" fill="#d52528"></rect><rect id="Rectangle_38" data-name="Rectangle 38" width="3.105" height="3.131" transform="translate(53.422 32.284)" fill="#d52528"></rect><rect id="Rectangle_39" data-name="Rectangle 39" width="3.106" height="3.131" transform="translate(36.947 38.889)" fill="#d52528"></rect><rect id="Rectangle_40" data-name="Rectangle 40" width="3.106" height="3.131" transform="translate(45.184 38.889)" fill="#d52528"></rect><rect id="Rectangle_41" data-name="Rectangle 41" width="3.105" height="3.131" transform="translate(53.422 38.889)" fill="#d52528"></rect></g></svg> 