<?xml version="1.0" encoding="UTF-8"?> <svg xmlns="http://www.w3.org/2000/svg" xmlns:xlink="http://www.w3.org/1999/xlink" id="Group_62" data-name="Group 62" width="70" height="79.675" viewBox="0 0 70 79.675"><defs><clipPath id="clip-path"><rect id="Rectangle_5" data-name="Rectangle 5" width="70" height="79.675" fill="#d52528"></rect></clipPath></defs><g id="Group_2" data-name="Group 2" transform="translate(0 0)" clip-path="url(#clip-path)"><path id="Path_10" data-name="Path 10" d="M11.573,104.516H1.01A1.01,1.01,0,0,1,0,103.506V73.952a1.01,1.01,0,0,1,1.01-1.011H11.573a1.01,1.01,0,0,1,1.01,1.011v29.554a1.01,1.01,0,0,1-1.01,1.01M2.021,102.5h8.542V74.962H2.021Z" transform="translate(0 -24.84)" fill="#d52528"></path><path id="Path_11" data-name="Path 11" d="M34.25,88.92a1.011,1.011,0,0,1-.3-1.976L41.519,84.6a1,1,0,0,1,.441-.036l14.157,1.991a1.794,1.794,0,0,0,1.989-1.372l.121-.532A1.791,1.791,0,0,0,56.9,82.514L41.99,78.995a4.738,4.738,0,0,0-1.968-.048l-22.81,4.214a1.01,1.01,0,1,1-.367-1.987l22.81-4.215a6.76,6.76,0,0,1,2.8.069l14.906,3.519A3.817,3.817,0,0,1,60.2,85.095l-.121.532a3.82,3.82,0,0,1-4.24,2.925L41.9,86.593,34.55,88.875a1.032,1.032,0,0,1-.3.046" transform="translate(-5.454 -26.17)" fill="#d52528"></path><path id="Path_12" data-name="Path 12" d="M33.27,105.061a139.962,139.962,0,0,1-16.361-.963,1.01,1.01,0,1,1,.235-2.007,136.735,136.735,0,0,0,52.1-3.876l2.873-.782a1.785,1.785,0,0,0,.378-3.293,1.785,1.785,0,0,0-.847-.214l-15.695-.358a1.01,1.01,0,0,1,.022-2.021H56l15.671.358h0a3.8,3.8,0,0,1,1.78.454,3.806,3.806,0,0,1-.806,7.023l-2.873.781a138.765,138.765,0,0,1-36.5,4.9" transform="translate(-5.454 -31.177)" fill="#d52528"></path><path id="Path_13" data-name="Path 13" d="M49.877,31.46A6.905,6.905,0,0,1,44.229,28.6a1.01,1.01,0,1,1,1.6-1.229,5.3,5.3,0,0,0,6.641,1.471c.027-.015.059-.029.088-.041A2.427,2.427,0,0,0,53.9,26.239a3.077,3.077,0,0,0-2.11-2.574s-2.113-.63-4.195-1.247a4.3,4.3,0,0,1-3.465-4.4c.012-1.06.473-4.49,5.875-4.49h.14a5.926,5.926,0,0,1,5.779,4,1.011,1.011,0,0,1-1.941.564,3.9,3.9,0,0,0-3.86-2.543c-1.821-.015-3.948.4-3.972,2.49-.01.907.222,1.905,2.017,2.437,2.085.617,4.2,1.247,4.2,1.247a5.091,5.091,0,0,1,3.546,4.328,4.483,4.483,0,0,1-2.541,4.592,7.883,7.883,0,0,1-3.491.812" transform="translate(-14.991 -4.608)" fill="#d52528"></path><path id="Path_14" data-name="Path 14" d="M52.766,13.843a1.011,1.011,0,0,1-1.011-1.01V9.517a1.011,1.011,0,0,1,2.022,0v3.315a1.011,1.011,0,0,1-1.011,1.01" transform="translate(-17.625 -2.897)" fill="#d52528"></path><path id="Path_15" data-name="Path 15" d="M52.766,43.308a1.011,1.011,0,0,1-1.011-1.01V38.982a1.011,1.011,0,0,1,2.022,0V42.3a1.011,1.011,0,0,1-1.011,1.01" transform="translate(-17.625 -12.932)" fill="#d52528"></path><path id="Path_16" data-name="Path 16" d="M43.556,36.861a18.43,18.43,0,1,1,18.431-18.43,18.451,18.451,0,0,1-18.431,18.43m0-34.84a16.409,16.409,0,1,0,16.41,16.41,16.428,16.428,0,0,0-16.41-16.41" transform="translate(-8.557 0)" fill="#d52528"></path></g></svg> 