<?xml version="1.0" encoding="UTF-8"?> <svg xmlns="http://www.w3.org/2000/svg" xmlns:xlink="http://www.w3.org/1999/xlink" width="75.557" height="55" viewBox="0 0 75.557 55"><defs><clipPath id="clip-path"><rect id="Rectangle_65" data-name="Rectangle 65" width="75.557" height="55" fill="#d52528"></rect></clipPath></defs><g id="lokaal" transform="translate(0 0)"><g id="Group_82" data-name="Group 82" transform="translate(0 0.001)" clip-path="url(#clip-path)"><path id="Path_134" data-name="Path 134" d="M44.543,36.358a1.134,1.134,0,0,1-1.015-.626L34.507,17.974A13.97,13.97,0,0,1,33.02,9.9a10.577,10.577,0,0,1,5.36-8.241,12.32,12.32,0,0,1,12.338,0A10.577,10.577,0,0,1,56.079,9.9a13.97,13.97,0,0,1-1.488,8.076L45.571,35.732a1.166,1.166,0,0,1-1.027.626m0-34.075a10,10,0,0,0-5.018,1.346,8.272,8.272,0,0,0-4.239,6.553,11.637,11.637,0,0,0,1.263,6.754l7.993,15.739,7.993-15.739A11.654,11.654,0,0,0,53.8,10.181a8.29,8.29,0,0,0-4.239-6.553,10,10,0,0,0-5.018-1.346" transform="translate(5.949 -0.001)" fill="#d52528"></path><path id="Path_135" data-name="Path 135" d="M43.727,17.4a6.293,6.293,0,1,1,6.293-6.293A6.3,6.3,0,0,1,43.727,17.4m0-10.3a4,4,0,1,0,4,4,4.006,4.006,0,0,0-4-4" transform="translate(6.765 0.869)" fill="#d52528"></path><path id="Path_136" data-name="Path 136" d="M37.776,51.661a1.118,1.118,0,0,1-.579-.153L19.18,41.023,1.622,49.146a1.134,1.134,0,0,1-1.275-.213,1.164,1.164,0,0,1-.26-1.275L9.722,24.942a1.175,1.175,0,0,1,.59-.6l13.082-5.762a1.235,1.235,0,0,1,.46-.094H44.281a1.145,1.145,0,0,1,0,2.291H24.091L11.647,26.252l-8.3,19.564L18.754,38.7a1.139,1.139,0,0,1,1.051.047l17.97,10.449L55.723,38.744a1.107,1.107,0,0,1,1.051-.047l15.42,7.132L63.9,26.264,55.333,22.5a1.147,1.147,0,1,1,.921-2.1l8.985,3.955a1.093,1.093,0,0,1,.59.6L75.464,47.67a1.145,1.145,0,0,1-1.535,1.488L56.36,41.035,38.354,51.519a1.233,1.233,0,0,1-.579.142" transform="translate(0 3.34)" fill="#d52528"></path><path id="Path_137" data-name="Path 137" d="M16.47,40.878a2.12,2.12,0,0,1-.26-.024,1.147,1.147,0,0,1-.862-1.37l4.6-20.1a1.144,1.144,0,0,1,2.232.508l-4.6,20.1a1.127,1.127,0,0,1-1.11.886" transform="translate(2.768 3.342)" fill="#d52528"></path><path id="Path_138" data-name="Path 138" d="M48.325,39.837a1.134,1.134,0,0,1-1.11-.886L44.168,25.657a1.144,1.144,0,0,1,2.232-.508l3.046,13.295a1.147,1.147,0,0,1-.862,1.37,2.12,2.12,0,0,1-.26.024" transform="translate(7.977 4.383)" fill="#d52528"></path><path id="Path_139" data-name="Path 139" d="M32.169,51.659a1.139,1.139,0,0,1-1.145-1.145V19.638a1.145,1.145,0,0,1,2.291,0V50.514a1.146,1.146,0,0,1-1.145,1.145" transform="translate(5.606 3.341)" fill="#d52528"></path></g></g></svg> 