<?xml version="1.0" encoding="UTF-8"?> <svg xmlns="http://www.w3.org/2000/svg" xmlns:xlink="http://www.w3.org/1999/xlink" width="53.074" height="52.916" viewBox="0 0 53.074 52.916"><defs><clipPath id="clip-path"><rect id="Rectangle_27" data-name="Rectangle 27" width="53.074" height="52.916" transform="translate(0 0)" fill="#d52528"></rect></clipPath></defs><g id="noodnummers" transform="translate(-30 -29.911)"><g id="Group_32" data-name="Group 32" transform="translate(30 29.911)" clip-path="url(#clip-path)"><path id="Path_82" data-name="Path 82" d="M53.333,38.08a.72.72,0,0,1-.719-.72V19.04a17.6,17.6,0,0,0-35.2,0V37.361a.719.719,0,1,1-1.439,0V19.04a19.04,19.04,0,1,1,38.079,0V37.361a.72.72,0,0,1-.719.72" transform="translate(-8.476 0)" fill="#d52528"></path><path id="Path_83" data-name="Path 83" d="M8.216,63.509h-3.9A4.32,4.32,0,0,1,0,59.194V52.238a4.32,4.32,0,0,1,4.315-4.316h3.9a.72.72,0,0,1,.719.72V62.789a.72.72,0,0,1-.719.72m-3.9-14.148a2.88,2.88,0,0,0-2.877,2.877v6.956A2.88,2.88,0,0,0,4.315,62.07H7.5V49.361Z" transform="translate(0 -25.429)" fill="#d52528"></path><path id="Path_84" data-name="Path 84" d="M98.658,63.509h-3.9a.72.72,0,0,1-.719-.72V48.642a.72.72,0,0,1,.719-.72h3.9a4.32,4.32,0,0,1,4.315,4.316v6.956a4.32,4.32,0,0,1-4.315,4.315M95.475,62.07h3.182a2.88,2.88,0,0,0,2.877-2.876V52.238a2.88,2.88,0,0,0-2.877-2.877H95.475Z" transform="translate(-49.899 -25.429)" fill="#d52528"></path><path id="Path_85" data-name="Path 85" d="M46.85,104.87a3.48,3.48,0,1,1,3.479-3.479,3.483,3.483,0,0,1-3.479,3.479m0-5.52a2.041,2.041,0,1,0,2.041,2.041A2.044,2.044,0,0,0,46.85,99.35" transform="translate(-23.014 -51.954)" fill="#d52528"></path><path id="Path_86" data-name="Path 86" d="M29.552,91.579h-.783a12.81,12.81,0,0,1-12.8-12.8.719.719,0,1,1,1.438,0A11.37,11.37,0,0,0,28.769,90.14h.783a.72.72,0,0,1,0,1.439" transform="translate(-8.476 -41.423)" fill="#d52528"></path></g></g></svg> 