<?xml version="1.0" encoding="UTF-8"?> <svg xmlns="http://www.w3.org/2000/svg" xmlns:xlink="http://www.w3.org/1999/xlink" width="64.912" height="65" viewBox="0 0 64.912 65"><defs><clipPath id="clip-path"><rect id="Rectangle_62" data-name="Rectangle 62" width="64.912" height="65" fill="#d52528"></rect></clipPath></defs><g id="onafhankelijk" transform="translate(0 0)"><g id="Group_76" data-name="Group 76" transform="translate(0 0)" clip-path="url(#clip-path)"><path id="Path_131" data-name="Path 131" d="M32.466,8.84a2,2,0,1,0,2,2,2,2,0,0,0-2-2m0,2.677a.679.679,0,1,1,.679-.679.679.679,0,0,1-.679.679M64.59,31.036a1.31,1.31,0,0,0-1-.453h-.072L54.729,13.495h3.66a2.657,2.657,0,0,0,0-5.315H36.777a5.286,5.286,0,0,0-1-1.173v-3.7a3.311,3.311,0,0,0-6.621,0V7.015a5.074,5.074,0,0,0-1,1.173H6.544a2.657,2.657,0,0,0,0,5.315H10.2L1.4,30.583H1.33a1.308,1.308,0,0,0-1,.453,1.344,1.344,0,0,0-.326,1.046c.552,4.43,5.4,7.78,11.268,7.78S22,36.52,22.544,32.082a1.29,1.29,0,0,0-.326-1.046,1.306,1.306,0,0,0-1-.453h-.071l-8.77-17.089H28.155a5.249,5.249,0,0,0,1,1.173V56.618H24.9a2.659,2.659,0,0,0-2.657,2.658v.408H19.8A2.657,2.657,0,1,0,19.8,65H45.117a2.657,2.657,0,0,0,0-5.315H42.671l0-.411a2.659,2.659,0,0,0-2.658-2.658H35.763l0-41.948a5.056,5.056,0,0,0,1-1.173H52.546L43.757,30.583h-.072a1.308,1.308,0,0,0-1,.453,1.339,1.339,0,0,0-.326,1.046c.552,4.43,5.4,7.78,11.268,7.78S64.349,36.52,64.9,32.082a1.271,1.271,0,0,0-.309-1.046Zm-53.3,7.49c-5.114,0-9.483-2.9-9.954-6.613H21.248c-.466,3.709-4.841,6.613-9.954,6.613m-8.4-7.942,8.392-16.3,8.392,16.3ZM30.482,3.307a1.984,1.984,0,1,1,3.968,0V6.183a5.09,5.09,0,0,0-3.968,0ZM6.544,12.174a1.327,1.327,0,0,1,0-2.655h21.04a5.164,5.164,0,0,0-.185,1.327,4.8,4.8,0,0,0,.185,1.327ZM46.455,62.341a1.326,1.326,0,0,1-1.327,1.328l-25.323,0a1.327,1.327,0,0,1,0-2.655H45.124A1.339,1.339,0,0,1,46.455,62.341ZM41.36,59.275v.408l-17.789,0v-.411A1.326,1.326,0,0,1,24.9,57.947H40.024a1.344,1.344,0,0,1,1.335,1.327Zm-6.91-2.649H30.487V15.508a5.09,5.09,0,0,0,3.968,0l0,41.117ZM32.465,14.583A3.737,3.737,0,1,1,36.2,10.847a3.738,3.738,0,0,1-3.737,3.737m4.882-5.067h21.04a1.327,1.327,0,1,1,0,2.655l-21.04,0a4.863,4.863,0,0,0,0-2.658m16.291,4.769,8.392,16.3-16.785,0Zm9.954,17.629c-.466,3.709-4.84,6.613-9.954,6.613s-9.483-2.9-9.954-6.613Zm.008.006h0c0-.008-.008-.008-.008-.014L64,31.384Z" transform="translate(0 0)" fill="#d52528"></path></g></g></svg> 