<?xml version="1.0" encoding="UTF-8"?> <svg xmlns="http://www.w3.org/2000/svg" xmlns:xlink="http://www.w3.org/1999/xlink" width="58.41" height="58.409" viewBox="0 0 58.41 58.409"><defs><clipPath id="clip-path"><rect id="Rectangle_31" data-name="Rectangle 31" width="58.41" height="58.409" transform="translate(0 0)" fill="#d52528"></rect></clipPath></defs><g id="openingsuren" transform="translate(0 0)"><g id="Group_44" data-name="Group 44" clip-path="url(#clip-path)"><path id="Path_104" data-name="Path 104" d="M29.2,58.409a29.2,29.2,0,1,1,29.2-29.2,29.238,29.238,0,0,1-29.2,29.2m0-56.593A27.388,27.388,0,1,0,56.594,29.2,27.419,27.419,0,0,0,29.2,1.816" fill="#d52528"></path><path id="Path_105" data-name="Path 105" d="M29.2,10.368A.908.908,0,0,1,28.3,9.46V5.9a.908.908,0,1,1,1.816,0V9.46a.908.908,0,0,1-.908.908" fill="#d52528"></path><path id="Path_106" data-name="Path 106" d="M19.333,13.013a.907.907,0,0,1-.787-.454L16.765,9.474a.908.908,0,0,1,1.573-.908l1.781,3.085a.909.909,0,0,1-.786,1.362" fill="#d52528"></path><path id="Path_107" data-name="Path 107" d="M12.1,20.24a.9.9,0,0,1-.453-.122L8.566,18.337a.908.908,0,0,1,.908-1.572l3.085,1.78A.908.908,0,0,1,12.1,20.24" fill="#d52528"></path><path id="Path_108" data-name="Path 108" d="M9.46,30.113H5.9a.908.908,0,1,1,0-1.816H9.46a.908.908,0,1,1,0,1.816" fill="#d52528"></path><path id="Path_109" data-name="Path 109" d="M9.021,41.766a.908.908,0,0,1-.455-1.695l3.085-1.78a.908.908,0,0,1,.908,1.572L9.474,41.644a.9.9,0,0,1-.453.122" fill="#d52528"></path><path id="Path_110" data-name="Path 110" d="M17.551,50.3a.909.909,0,0,1-.787-1.362l1.781-3.085a.908.908,0,1,1,1.573.909l-1.781,3.084a.9.9,0,0,1-.786.454" fill="#d52528"></path><path id="Path_111" data-name="Path 111" d="M29.2,53.42a.908.908,0,0,1-.908-.908V48.95a.908.908,0,1,1,1.816,0v3.562a.908.908,0,0,1-.908.908" fill="#d52528"></path><path id="Path_112" data-name="Path 112" d="M40.859,50.3a.907.907,0,0,1-.787-.454l-1.781-3.084a.908.908,0,0,1,1.573-.909l1.781,3.085a.909.909,0,0,1-.333,1.24.9.9,0,0,1-.453.122" fill="#d52528"></path><path id="Path_113" data-name="Path 113" d="M49.389,41.766a.9.9,0,0,1-.454-.122L45.85,39.863a.908.908,0,0,1,.908-1.572l3.085,1.78a.908.908,0,0,1-.454,1.695" fill="#d52528"></path><path id="Path_114" data-name="Path 114" d="M52.512,30.113H48.95a.908.908,0,1,1,0-1.816h3.562a.908.908,0,0,1,0,1.816" fill="#d52528"></path><path id="Path_115" data-name="Path 115" d="M46.306,20.24a.908.908,0,0,1-.456-1.695l3.085-1.78a.908.908,0,0,1,.908,1.572l-3.085,1.781a.9.9,0,0,1-.452.122" fill="#d52528"></path><path id="Path_116" data-name="Path 116" d="M39.077,13.013a.908.908,0,0,1-.785-1.362l1.78-3.085a.908.908,0,0,1,1.573.908l-1.781,3.085a.907.907,0,0,1-.787.454" fill="#d52528"></path><path id="Path_117" data-name="Path 117" d="M29.2,30.113A.908.908,0,0,1,28.3,29.2V15.91a.908.908,0,1,1,1.816,0V27.618l6.978-4.1a.908.908,0,0,1,.92,1.566l-8.346,4.9a.912.912,0,0,1-.46.125" fill="#d52528"></path></g></g></svg> 