<?xml version="1.0" encoding="UTF-8"?> <svg xmlns="http://www.w3.org/2000/svg" xmlns:xlink="http://www.w3.org/1999/xlink" width="76.526" height="45.823" viewBox="0 0 76.526 45.823"><defs><clipPath id="clip-path"><rect id="Rectangle_29" data-name="Rectangle 29" width="76.526" height="45.823" transform="translate(0 0)" fill="#d52528"></rect></clipPath></defs><g id="partners" transform="translate(-92.68 -743.377)"><g id="Group_40" data-name="Group 40" transform="translate(92.68 743.377)" clip-path="url(#clip-path)"><path id="Path_96" data-name="Path 96" d="M94.569,40.219a46.46,46.46,0,0,1-7.291-.6.917.917,0,0,1-.773-.905v-6.38A12.357,12.357,0,0,0,83.3,23.8a13.727,13.727,0,0,0-2.233-1.866.918.918,0,0,1-.194-1.321,11.8,11.8,0,0,1,6.1-4.048,9.347,9.347,0,1,1,13.329,0,11.811,11.811,0,0,1,8.622,11.291v8.75a.918.918,0,0,1-.71.893l-.413.211c-.521.26-5.254,2.505-13.232,2.505m-6.229-2.29a44.085,44.085,0,0,0,6.229.457c7.557,0,11.932-2.073,12.406-2.309l.114-.059V27.86A9.941,9.941,0,0,0,98.1,18.027a.917.917,0,0,1-.414-1.684,7.512,7.512,0,1,0-8.1,0,.917.917,0,0,1-.414,1.684,9.908,9.908,0,0,0-6.236,3.006,13.3,13.3,0,0,1,1.711,1.529,14.16,14.16,0,0,1,3.693,9.776Zm19.667-1.319h0Z" transform="translate(-32.399 -0.271)" fill="#d52528"></path><path id="Path_97" data-name="Path 97" d="M14.355,40.22c-7.989,0-12.712-2.246-13.224-2.5l-.5-.255A.942.942,0,0,1,0,36.61v-8.75A11.809,11.809,0,0,1,8.623,16.57a9.347,9.347,0,1,1,13.328,0,11.79,11.79,0,0,1,6.1,4.047.917.917,0,0,1-.194,1.321,14.777,14.777,0,0,0-2.3,1.939,12.077,12.077,0,0,0-3.137,8.462v6.38a.918.918,0,0,1-.773.905,46.456,46.456,0,0,1-7.291.6m-12.52-4.2.122.063c.183.091,4.7,2.306,12.4,2.306a44.2,44.2,0,0,0,6.23-.457V32.338a14.043,14.043,0,0,1,3.621-9.7,14.683,14.683,0,0,1,1.785-1.6,9.909,9.909,0,0,0-6.239-3.009.917.917,0,0,1-.414-1.684,7.513,7.513,0,1,0-8.1,0,.917.917,0,0,1-.415,1.684,9.941,9.941,0,0,0-8.987,9.834Z" transform="translate(0 -0.271)" fill="#d52528"></path><path id="Path_98" data-name="Path 98" d="M53.164,45.823a58.447,58.447,0,0,1-17.393-2.8l-.7-.218a.918.918,0,0,1-.633-.727l-.026-.162a.949.949,0,0,1-.013-.148V31.558A13.617,13.617,0,0,1,44.6,18.467a10.752,10.752,0,1,1,14.954,0,13.621,13.621,0,0,1,10.2,13.092V41.765a.918.918,0,0,1-.728.9l-.5.254c-.6.3-6.081,2.906-15.364,2.906m-16.933-4.58.085.026a56.644,56.644,0,0,0,16.848,2.72c8.862,0,13.983-2.432,14.537-2.71l.22-.112V31.558A11.751,11.751,0,0,0,57.3,19.935a.917.917,0,0,1-.414-1.684,8.915,8.915,0,1,0-9.615,0,.917.917,0,0,1-.415,1.684A11.749,11.749,0,0,0,36.231,31.558Zm32.607.522h0Z" transform="translate(-13.814 0)" fill="#d52528"></path></g></g></svg> 