<?xml version="1.0" encoding="UTF-8"?> <svg xmlns="http://www.w3.org/2000/svg" xmlns:xlink="http://www.w3.org/1999/xlink" width="89.996" height="55.452" viewBox="0 0 89.996 55.452"><defs><clipPath id="clip-path"><rect id="Rectangle_63" data-name="Rectangle 63" width="89.996" height="55.452" transform="translate(0 0)" fill="#d52528"></rect></clipPath></defs><g id="persoonlijk" transform="translate(0 0)"><g id="Group_78" data-name="Group 78" clip-path="url(#clip-path)"><path id="Path_132" data-name="Path 132" d="M31.237,38.863l.418-.832a2.666,2.666,0,0,0-4.762-2.4L25.065,39.27a2.667,2.667,0,0,0,4.762,2.4Zm6.492,3.516L36.037,45.75a2.666,2.666,0,0,1-4.8-2.32c.117-.2.308-.617.422-.84l1.414-2.816a2.614,2.614,0,0,1,1.57-1.383,2.667,2.667,0,0,1,3.219,3.722ZM37.705,47a2.666,2.666,0,0,0,4.8,2.32l1.828-3.636a2.666,2.666,0,0,0-4.726-2.469.612.612,0,0,1-.082.156l-1.653,3.289c-.054.106-.1.238-.167.336ZM20.314,32.285a2.666,2.666,0,0,1,4.743,2.434l-1.829,3.636a2.664,2.664,0,1,1-4.757-2.4l1.8-3.59h0a.9.9,0,0,0,.046-.086ZM12.084,2.344,2.346,28.766l9.14,3.367L21.225,5.715,12.084,2.348ZM37.1,10.039c-3.012,1.946-5.309,4.653-5.1,8.785a9.458,9.458,0,0,0-2.683,3.809,4.438,4.438,0,0,0,.465,4.324C33.408,31.5,43.62,24.3,45.952,19.8c9.562-2.742,10.25-.8,11.3,2.152,1.058,2.993,2.406,6.8,9.468,9.188l6.489,6.711a2.642,2.642,0,0,1-3.8,3.676l-6.664-6.9a1.027,1.027,0,0,0-1.786.688,1.032,1.032,0,0,0,.305.738l5.469,5.66v0a2.641,2.641,0,0,1-3.793,3.676L56.28,38.5A1.028,1.028,0,0,0,54.8,39.922l4.973,5.145a2.644,2.644,0,1,1-3.8,3.675l-6.664-6.894a1,1,0,0,0-.726-.336,1.039,1.039,0,0,0-.746.285,1.037,1.037,0,0,0-.008,1.477L53.3,48.938v0a2.642,2.642,0,0,1-3.8,3.672l-4.184-4.328.84-1.672a4.716,4.716,0,0,0-6.027-6.469,4.725,4.725,0,0,0-6.161-3.691A4.726,4.726,0,0,0,27.3,32.555a4.723,4.723,0,0,0-8.141-2.172,10.6,10.6,0,0,0-4.168-1.8l6.578-17.852c4.1,2.058,10.965-1.86,15.527-.7Zm50.59,22.332-8.012-27-9.34,2.77,8.012,27Zm-12.2.344A17.247,17.247,0,0,1,73,34.672l-4.942-5.113v0a1.019,1.019,0,0,0-.449-.3c-6.312-2.07-7.488-5.395-8.41-8-1.449-4.1-2.4-6.781-14.188-3.328l0,0a1.04,1.04,0,0,0-.731.609,12.989,12.989,0,0,1-3.789,4.34,19.311,19.311,0,0,1-4.773,2.859,5.283,5.283,0,0,1-3.68.418c-1.187-.5-1.144-1.808-.777-2.843a7.516,7.516,0,0,1,2.371-3.184,1.064,1.064,0,0,0,.164-.137,1.028,1.028,0,0,0,.3-.824c-.621-6.121,6.141-8.734,11.051-10.629h0a35.3,35.3,0,0,0,3.7-1.578c2.613-1.4,5.113-.016,8.078,1.633,3.309,1.84,7.133,3.961,12.449,3.492l6.121,20.625Zm5.871-28.91,8.594,28.969h0a1.027,1.027,0,0,1-.086.781,1.014,1.014,0,0,1-.614.492L77.947,37.4l0,0a1.048,1.048,0,0,1-.782-.086,1.032,1.032,0,0,1-.5-.617l-.535-1.8-1.687,1.273.242.254h0a4.7,4.7,0,0,1-5.18,7.6,4.7,4.7,0,0,1-7,3.6,4.7,4.7,0,0,1-6.438,3.61,4.7,4.7,0,0,1-8.047,2.789l-3.679-3.8a4.715,4.715,0,0,1-8.875-1.316,4.719,4.719,0,0,1-6.516-3.965,4.731,4.731,0,0,1-6.125-3.5,4.716,4.716,0,0,1-6.2-6.4l1.453-2.9a8.537,8.537,0,0,0-3.824-1.6l-1.2,3.258a1.034,1.034,0,0,1-1.325.613L.666,30.34l0,0a1.026,1.026,0,0,1-.609-1.308L10.51.676v0A1.029,1.029,0,0,1,11.83.063L22.9,4.141a1.037,1.037,0,0,1,.614,1.32l-1.227,3.32c1.609.946,4.266.387,7.055-.2,3.461-.73,7.1-1.5,10.039.168,1.675-.836,3.429-1.512,5.007-2.121l0,0A33.722,33.722,0,0,0,47.857,5.16c3.6-1.933,6.551-.3,10.051,1.649,2.953,1.64,6.352,3.527,10.855,3.269l-.691-2.332a1.029,1.029,0,0,1,.7-1.277L80.08,3.105a1.027,1.027,0,0,1,1.273.7Z" fill="#d52528" fill-rule="evenodd"></path></g></g></svg> 