<?xml version="1.0" encoding="UTF-8"?> <svg xmlns="http://www.w3.org/2000/svg" xmlns:xlink="http://www.w3.org/1999/xlink" id="Group_63" data-name="Group 63" width="70" height="53.846" viewBox="0 0 70 53.846"><defs><clipPath id="clip-path"><rect id="Rectangle_6" data-name="Rectangle 6" width="70" height="53.846" fill="#d52528"></rect></clipPath></defs><g id="Group_4" data-name="Group 4" transform="translate(0 0)" clip-path="url(#clip-path)"><path id="Path_17" data-name="Path 17" d="M69,81.528H1a1,1,0,1,1,0-2H69a1,1,0,1,1,0,2" transform="translate(0 -27.682)" fill="#d52528"></path><path id="Path_18" data-name="Path 18" d="M1,54.6a1,1,0,0,1-1-1V3.156a1,1,0,0,1,2,0V53.6a1,1,0,0,1-1,1" transform="translate(0 -0.751)" fill="#d52528"></path><path id="Path_19" data-name="Path 19" d="M20.327,69.979H9.744a1,1,0,0,1-1-1V60.8a1,1,0,0,1,1-1H20.327a1,1,0,0,1,1,1v8.18a1,1,0,0,1-1,1m-9.583-2h8.584V61.8H10.744Z" transform="translate(-3.044 -20.814)" fill="#d52528"></path><path id="Path_20" data-name="Path 20" d="M43.855,65.884H33.273a1,1,0,0,1-1-1V49.036a1,1,0,0,1,1-1H43.855a1,1,0,0,1,1,1V64.885a1,1,0,0,1-1,1m-9.582-2h8.583V50.035H34.273Z" transform="translate(-11.234 -16.72)" fill="#d52528"></path><path id="Path_21" data-name="Path 21" d="M67.384,61.79H56.8a1,1,0,0,1-1-1V37.272a1,1,0,0,1,1-1H67.384a1,1,0,0,1,1,1V60.79a1,1,0,0,1-1,1m-9.583-2h8.584V38.271H57.8Z" transform="translate(-19.423 -12.625)" fill="#d52528"></path><path id="Path_22" data-name="Path 22" d="M90.912,57.695H80.329a1,1,0,0,1-1-1V25.507a1,1,0,0,1,1-1H90.912a1,1,0,0,1,1,1V56.7a1,1,0,0,1-1,1m-9.583-2h8.584V26.506H81.329Z" transform="translate(-27.612 -8.53)" fill="#d52528"></path><path id="Path_23" data-name="Path 23" d="M9.745,35.563a1,1,0,0,1-.47-1.881l56.6-30.134a1,1,0,0,1,1.453,1.057l-1.048,5.88a1,1,0,1,1-1.966-.35L65,6.277,10.213,35.446a.993.993,0,0,1-.468.117" transform="translate(-3.044 -1.194)" fill="#d52528"></path><path id="Path_24" data-name="Path 24" d="M93.545,4.235a1,1,0,0,1-.368-.07l-5.65-2.237A1,1,0,0,1,88.264.07l5.65,2.237a1,1,0,0,1-.368,1.928" transform="translate(-30.246 0)" fill="#d52528"></path></g></svg> 