<?xml version="1.0" encoding="UTF-8"?> <svg xmlns="http://www.w3.org/2000/svg" xmlns:xlink="http://www.w3.org/1999/xlink" id="verzekeringen" width="82.749" height="76.208" viewBox="0 0 82.749 76.208"><defs><clipPath id="clip-path"><rect id="Rectangle_67" data-name="Rectangle 67" width="82.749" height="76.208" transform="translate(0 0)" fill="#d52528"></rect></clipPath></defs><g id="Group_90" data-name="Group 90" clip-path="url(#clip-path)"><path id="Path_140" data-name="Path 140" d="M42.145,41.749a1.337,1.337,0,0,0,2.674,0c0-.742-1.337-2.474-1.337-2.474s-1.337,1.732-1.337,2.474" fill="#d52528"></path><path id="Path_141" data-name="Path 141" d="M42.145,41.749a1.337,1.337,0,0,0,2.674,0c0-.742-1.337-2.474-1.337-2.474s-1.337,1.732-1.337,2.474" fill="#d52528" stroke="#fff" stroke-linecap="round" stroke-miterlimit="10" stroke-width="0.75"></path><path id="Path_142" data-name="Path 142" d="M66.858,54.19H55.143a1.238,1.238,0,0,0-1.234,1.24V67.145a1.235,1.235,0,0,0,1.234,1.234H66.858a1.235,1.235,0,0,0,1.24-1.23V55.43a1.24,1.24,0,0,0-1.24-1.24M59.767,65.9H56.388V62.522h3.378Zm0-5.858H56.388V56.669h3.378ZM65.62,65.9H62.246V62.522H65.62Zm0-5.858H62.246V56.669H65.62Z" fill="#d52528"></path><path id="Path_143" data-name="Path 143" d="M66.858,54.19H55.143a1.238,1.238,0,0,0-1.234,1.24V67.145a1.235,1.235,0,0,0,1.234,1.234H66.858a1.235,1.235,0,0,0,1.24-1.23V55.43a1.24,1.24,0,0,0-1.24-1.24M59.767,65.9H56.388V62.522h3.378Zm0-5.858H56.388V56.669h3.378ZM65.62,65.9H62.246V62.522H65.62Zm0-5.858H62.246V56.669H65.62Z" fill="#d52528" stroke="#fff" stroke-linecap="round" stroke-miterlimit="10" stroke-width="0.75"></path><path id="Path_144" data-name="Path 144" d="M61.738,34.17a1.233,1.233,0,0,0-1.472,0L40.137,49.1a1.245,1.245,0,0,0-.439,1.386,1.228,1.228,0,0,0,1.175.85h5.576V74.653a1.177,1.177,0,0,0,1.174,1.18h26.75a1.181,1.181,0,0,0,1.186-1.176V51.336H81.13a1.24,1.24,0,0,0,.742-2.236ZM73.184,73.462H48.821V51.336H73.184Zm-28.557-24.6L61,36.709,77.384,48.857Z" fill="#d52528"></path><path id="Path_145" data-name="Path 145" d="M61.738,34.17a1.233,1.233,0,0,0-1.472,0L40.137,49.1a1.245,1.245,0,0,0-.439,1.386,1.228,1.228,0,0,0,1.175.85h5.576V74.653a1.177,1.177,0,0,0,1.174,1.18h26.75a1.181,1.181,0,0,0,1.186-1.176V51.336H81.13a1.24,1.24,0,0,0,.742-2.236ZM73.184,73.462H48.821V51.336H73.184Zm-28.557-24.6L61,36.709,77.384,48.857Z" fill="#d52528" stroke="#fff" stroke-linecap="round" stroke-miterlimit="10" stroke-width="0.75"></path><path id="Path_146" data-name="Path 146" d="M58.76,39.893l-6.367,4.829a1.243,1.243,0,0,0-.239,1.742h0a1.259,1.259,0,0,0,.991.487,1.245,1.245,0,0,0,.747-.254l6.366-4.84a1.236,1.236,0,0,0-1.5-1.965" fill="#d52528"></path><path id="Path_147" data-name="Path 147" d="M58.76,39.893l-6.367,4.829a1.243,1.243,0,0,0-.239,1.742h0a1.259,1.259,0,0,0,.991.487,1.245,1.245,0,0,0,.747-.254l6.366-4.84a1.236,1.236,0,0,0-1.5-1.965" fill="#d52528" stroke="#fff" stroke-linecap="round" stroke-miterlimit="10" stroke-width="0.75"></path><path id="Path_148" data-name="Path 148" d="M32.964,4.552V2.029a1.654,1.654,0,0,0-3.308,0V4.552A31.081,31.081,0,0,0,.39,30.938,1.221,1.221,0,0,0,.856,32.1,1.249,1.249,0,0,0,2.1,32.27c4.65-1.987,8.6-2.317,11.612-.964a9.275,9.275,0,0,1,4.309,4.239c.027.038.06.065.081.1l0,.011a1.233,1.233,0,0,0,1.029.563,1.128,1.128,0,0,0,.271-.032,1.261,1.261,0,0,0,.585-.319l.081-.07.6-.623c.114-.119.249-.244.374-.374l.108-.1c.162-.157.346-.325.531-.487l.206-.179c.146-.125.282-.244.422-.363l.271-.217c.141-.108.282-.222.428-.33l.3-.222c.157-.119.325-.227.5-.346l.292-.206c.189-.125.39-.249.6-.368l.249-.152c.282-.168.579-.33.877-.482l.227-.1c.233-.114.471-.222.731-.33L27,30.832l.119-.049c.211-.076.422-.157.65-.238.125-.043.244-.076.379-.114.211-.065.428-.125.671-.179.119-.027.244-.06.363-.081.162-.038.325-.06.487-.087V63.761a7.022,7.022,0,0,0,7.01,7.017,1.651,1.651,0,0,0,.115-3.3h-.115a3.716,3.716,0,0,1-3.708-3.719V30.088c.157.027.33.049.482.087.125.022.249.054.39.092a6.211,6.211,0,0,1,.65.168c.13.038.249.07.39.125.211.07.428.152.633.227l.119.049.227.092c.249.1.482.211.709.319l.227.108c.3.152.6.309.888.487l.249.146c.189.119.4.244.585.368l.309.211c.168.114.325.222.476.341l.3.217c.146.108.287.227.444.341l.26.206c.146.125.287.244.406.357l.211.179c.195.173.384.341.579.531l.06.06c.141.135.276.26.39.379l.623.65a1.146,1.146,0,0,0,.238.195l.06.038a1.358,1.358,0,0,0,.33.13h.016a1.128,1.128,0,0,0,.271.032h.005a1.017,1.017,0,0,0,.319-.049h.005a1.206,1.206,0,0,0,.834-.747,9.286,9.286,0,0,1,4.25-4.12c3.015-1.348,6.962-1.023,11.612.964a1.26,1.26,0,0,0,1.251-.168,1.2,1.2,0,0,0,.455-1.164A31.07,31.07,0,0,0,32.964,4.552M19.975,23.494c-.032.076-.06.168-.087.249-.152.476-.3.958-.438,1.451-.038.168-.087.336-.13.5-.135.5-.26,1-.384,1.5-.022.087-.038.179-.06.271-.141.585-.254,1.18-.368,1.776-.027.162-.054.33-.07.487-.092.476-.162.964-.217,1.445l-.054.325a10.825,10.825,0,0,0-3.438-2.463A12.506,12.506,0,0,0,9.64,28.006a20.089,20.089,0,0,0-6.38,1.162A28.613,28.613,0,0,1,28.622,7.1l-.07.092c-.146.189-.3.39-.449.6-.043.07-.1.135-.146.2-.189.265-.39.552-.6.85l-.032.038c-.189.282-.4.579-.6.888l-.168.26c-.195.282-.379.574-.568.872l-.119.189c-.227.357-.46.731-.688,1.121-.054.081-.108.179-.173.265-.184.319-.368.644-.558.969-.06.108-.125.217-.179.33-.238.422-.476.85-.709,1.288l-.076.146c-.211.4-.417.812-.623,1.223-.07.13-.125.26-.195.39-.195.4-.384.807-.574,1.229-.038.076-.081.162-.119.249-.217.487-.433.991-.639,1.5-.06.125-.108.26-.168.39-.157.406-.33.823-.476,1.245-.054.135-.108.282-.162.422-.195.536-.379,1.077-.558,1.635M41.882,31.76l-.287-.233c-.162-.13-.325-.249-.5-.384L40.77,30.9q-.283-.2-.536-.374c-.125-.081-.233-.162-.352-.244l-.677-.417-.076-.043c-.07-.049-.152-.092-.206-.13-.336-.189-.671-.374-1.029-.558l-.244-.114c-.265-.135-.547-.265-.823-.379-.108-.043-.206-.087-.314-.125l-.108-.043c-.238-.092-.5-.184-.736-.265-.157-.049-.309-.1-.476-.152-.254-.07-.509-.141-.8-.217l-.455-.1c-.287-.06-.574-.1-.872-.146l-.13-.022c-.1-.016-.2-.022-.287-.032a12.068,12.068,0,0,0-2.7,0c-.087.011-.184.016-.282.032l-.146.022c-.287.043-.574.087-.861.146-.152.032-.292.065-.476.1-.265.07-.52.141-.769.211-.173.049-.319.1-.466.146-.254.087-.5.179-.758.276l-.1.038c-.1.043-.206.081-.3.125-.287.114-.563.244-.85.39l-.233.114c-.357.173-.693.357-1.018.541-.065.043-.135.087-.206.125l-.076.049c-.233.146-.455.282-.682.428-.119.076-.227.157-.341.233-.184.125-.363.249-.541.384l-.357.26c-.162.119-.314.249-.46.363l-.309.238-.108.092c.016-.076.027-.162.038-.244.07-.547.157-1.088.249-1.624l.065-.39c.114-.617.238-1.218.39-1.819.027-.114.043-.238.076-.363.141-.52.271-1.029.417-1.537l.1-.341c.162-.579.341-1.148.541-1.711.038-.119.081-.244.125-.357.168-.493.346-.974.531-1.456.038-.092.065-.184.1-.282.217-.536.433-1.066.65-1.586.06-.114.1-.227.157-.341.206-.46.406-.9.617-1.343.032-.076.07-.146.1-.227.227-.487.471-.964.709-1.435.06-.108.119-.211.173-.319.217-.417.439-.828.655-1.223l.076-.152c.249-.439.5-.861.742-1.272.06-.092.114-.184.168-.276.222-.379.444-.742.66-1.094l.06-.081c.233-.379.471-.731.688-1.077.06-.081.108-.162.152-.233.227-.33.444-.65.65-.937l0-.022c.217-.3.422-.59.617-.855a1.008,1.008,0,0,1,.125-.179c.374-.52.725-.974,1.012-1.343l.038-.043.043.049c.287.363.633.817,1.012,1.337.043.054.081.114.125.179.195.265.4.547.606.855l.027.038c.206.282.417.59.628.915l.157.244c.222.341.455.693.688,1.066l.07.1c.211.346.428.7.655,1.066.049.1.114.195.179.3.233.4.476.823.72,1.251a1.409,1.409,0,0,1,.087.179q.333.585.65,1.2c.054.114.125.227.184.336.233.466.471.942.7,1.424l.119.249c.2.428.4.866.6,1.31.054.125.108.244.162.368.222.509.433,1.039.644,1.57.043.1.076.211.114.3.184.471.357.947.525,1.424l.13.379c.189.563.368,1.126.541,1.694.038.125.07.244.1.363.146.5.265,1.007.4,1.516a3.556,3.556,0,0,1,.087.384c.152.6.271,1.191.384,1.8.027.141.043.271.07.417.1.52.173,1.056.244,1.6l.038.254a.639.639,0,0,1-.114-.1M47.9,29.038A10.8,10.8,0,0,0,44.452,31.5c-.005-.1-.032-.184-.043-.282-.06-.509-.135-1.012-.227-1.516-.016-.168-.054-.341-.087-.514-.1-.574-.217-1.148-.346-1.711l-.016-.081c-.135-.59-.282-1.175-.444-1.749-.038-.157-.087-.325-.13-.482-.13-.46-.271-.909-.411-1.359l-.114-.368c-.179-.552-.363-1.088-.563-1.624-.043-.125-.087-.249-.141-.374-.152-.417-.319-.845-.482-1.256-.06-.141-.119-.282-.179-.428-.211-.509-.417-1-.639-1.489a.622.622,0,0,1-.065-.135c-.206-.449-.411-.888-.623-1.326-.06-.13-.125-.265-.195-.4-.189-.379-.384-.758-.574-1.126l-.141-.254c-.233-.433-.46-.855-.693-1.267l-.179-.325c-.184-.319-.368-.639-.552-.942-.065-.1-.125-.211-.179-.309-.238-.384-.46-.752-.682-1.1-.032-.054-.065-.114-.1-.168-.2-.3-.39-.6-.579-.882-.06-.087-.125-.184-.179-.271-.195-.282-.379-.563-.558-.817-.027-.038-.049-.081-.076-.114-.206-.292-.4-.574-.6-.834L34.5,7.792c-.146-.206-.287-.4-.433-.579L34,7.105A28.616,28.616,0,0,1,59.361,29.168c-4.434-1.5-8.31-1.543-11.466-.13" fill="#d52528"></path><path id="Path_149" data-name="Path 149" d="M32.964,4.552V2.029a1.654,1.654,0,0,0-3.308,0V4.552A31.081,31.081,0,0,0,.39,30.938,1.221,1.221,0,0,0,.856,32.1,1.249,1.249,0,0,0,2.1,32.27c4.65-1.987,8.6-2.317,11.612-.964a9.275,9.275,0,0,1,4.309,4.239c.027.038.06.065.081.1l0,.011a1.233,1.233,0,0,0,1.029.563,1.128,1.128,0,0,0,.271-.032,1.261,1.261,0,0,0,.585-.319l.081-.07.6-.623c.114-.119.249-.244.374-.374l.108-.1c.162-.157.346-.325.531-.487l.206-.179c.146-.125.282-.244.422-.363l.271-.217c.141-.108.282-.222.428-.33l.3-.222c.157-.119.325-.227.5-.346l.292-.206c.189-.125.39-.249.6-.368l.249-.152c.282-.168.579-.33.877-.482l.227-.1c.233-.114.471-.222.731-.33L27,30.832l.119-.049c.211-.076.422-.157.65-.238.125-.043.244-.076.379-.114.211-.065.428-.125.671-.179.119-.027.244-.06.363-.081.162-.038.325-.06.487-.087V63.761a7.022,7.022,0,0,0,7.01,7.017,1.651,1.651,0,0,0,.115-3.3h-.115a3.716,3.716,0,0,1-3.708-3.719V30.088c.157.027.33.049.482.087.125.022.249.054.39.092a6.211,6.211,0,0,1,.65.168c.13.038.249.07.39.125.211.07.428.152.633.227l.119.049.227.092c.249.1.482.211.709.319l.227.108c.3.152.6.309.888.487l.249.146c.189.119.4.244.585.368l.309.211c.168.114.325.222.476.341l.3.217c.146.108.287.227.444.341l.26.206c.146.125.287.244.406.357l.211.179c.195.173.384.341.579.531l.06.06c.141.135.276.26.39.379l.623.65a1.146,1.146,0,0,0,.238.195l.06.038a1.358,1.358,0,0,0,.33.13h.016a1.128,1.128,0,0,0,.271.032h.005a1.017,1.017,0,0,0,.319-.049h.005a1.206,1.206,0,0,0,.834-.747,9.286,9.286,0,0,1,4.25-4.12c3.015-1.348,6.962-1.023,11.612.964a1.26,1.26,0,0,0,1.251-.168,1.2,1.2,0,0,0,.455-1.164A31.07,31.07,0,0,0,32.964,4.552M19.975,23.494c-.032.076-.06.168-.087.249-.152.476-.3.958-.438,1.451-.038.168-.087.336-.13.5-.135.5-.26,1-.384,1.5-.022.087-.038.179-.06.271-.141.585-.254,1.18-.368,1.776-.027.162-.054.33-.07.487-.092.476-.162.964-.217,1.445l-.054.325a10.825,10.825,0,0,0-3.438-2.463A12.506,12.506,0,0,0,9.64,28.006a20.089,20.089,0,0,0-6.38,1.162A28.613,28.613,0,0,1,28.622,7.1l-.07.092c-.146.189-.3.39-.449.6-.043.07-.1.135-.146.2-.189.265-.39.552-.6.85l-.032.038c-.189.282-.4.579-.6.888l-.168.26c-.195.282-.379.574-.568.872l-.119.189c-.227.357-.46.731-.688,1.121-.054.081-.108.179-.173.265-.184.319-.368.644-.558.969-.06.108-.125.217-.179.33-.238.422-.476.85-.709,1.288l-.076.146c-.211.4-.417.812-.623,1.223-.07.13-.125.26-.195.39-.195.4-.384.807-.574,1.229-.038.076-.081.162-.119.249-.217.487-.433.991-.639,1.5-.06.125-.108.26-.168.39-.157.406-.33.823-.476,1.245-.054.135-.108.282-.162.422-.195.536-.379,1.077-.558,1.635M41.882,31.76l-.287-.233c-.162-.13-.325-.249-.5-.384L40.77,30.9q-.283-.2-.536-.374c-.125-.081-.233-.162-.352-.244l-.677-.417-.076-.043c-.07-.049-.152-.092-.206-.13-.336-.189-.671-.374-1.029-.558l-.244-.114c-.265-.135-.547-.265-.823-.379-.108-.043-.206-.087-.314-.125l-.108-.043c-.238-.092-.5-.184-.736-.265-.157-.049-.309-.1-.476-.152-.254-.07-.509-.141-.8-.217l-.455-.1c-.287-.06-.574-.1-.872-.146l-.13-.022c-.1-.016-.2-.022-.287-.032a12.068,12.068,0,0,0-2.7,0c-.087.011-.184.016-.282.032l-.146.022c-.287.043-.574.087-.861.146-.152.032-.292.065-.476.1-.265.07-.52.141-.769.211-.173.049-.319.1-.466.146-.254.087-.5.179-.758.276l-.1.038c-.1.043-.206.081-.3.125-.287.114-.563.244-.85.39l-.233.114c-.357.173-.693.357-1.018.541-.065.043-.135.087-.206.125l-.076.049c-.233.146-.455.282-.682.428-.119.076-.227.157-.341.233-.184.125-.363.249-.541.384l-.357.26c-.162.119-.314.249-.46.363l-.309.238-.108.092c.016-.076.027-.162.038-.244.07-.547.157-1.088.249-1.624l.065-.39c.114-.617.238-1.218.39-1.819.027-.114.043-.238.076-.363.141-.52.271-1.029.417-1.537l.1-.341c.162-.579.341-1.148.541-1.711.038-.119.081-.244.125-.357.168-.493.346-.974.531-1.456.038-.092.065-.184.1-.282.217-.536.433-1.066.65-1.586.06-.114.1-.227.157-.341.206-.46.406-.9.617-1.343.032-.076.07-.146.1-.227.227-.487.471-.964.709-1.435.06-.108.119-.211.173-.319.217-.417.439-.828.655-1.223l.076-.152c.249-.439.5-.861.742-1.272.06-.092.114-.184.168-.276.222-.379.444-.742.66-1.094l.06-.081c.233-.379.471-.731.688-1.077.06-.081.108-.162.152-.233.227-.33.444-.65.65-.937l0-.022c.217-.3.422-.59.617-.855a1.008,1.008,0,0,1,.125-.179c.374-.52.725-.974,1.012-1.343l.038-.043.043.049c.287.363.633.817,1.012,1.337.043.054.081.114.125.179.195.265.4.547.606.855l.027.038c.206.282.417.59.628.915l.157.244c.222.341.455.693.688,1.066l.07.1c.211.346.428.7.655,1.066.049.1.114.195.179.3.233.4.476.823.72,1.251a1.409,1.409,0,0,1,.087.179q.333.585.65,1.2c.054.114.125.227.184.336.233.466.471.942.7,1.424l.119.249c.2.428.4.866.6,1.31.054.125.108.244.162.368.222.509.433,1.039.644,1.57.043.1.076.211.114.3.184.471.357.947.525,1.424l.13.379c.189.563.368,1.126.541,1.694.038.125.07.244.1.363.146.5.265,1.007.4,1.516a3.556,3.556,0,0,1,.087.384c.152.6.271,1.191.384,1.8.027.141.043.271.07.417.1.52.173,1.056.244,1.6l.038.254a.639.639,0,0,1-.114-.1M47.9,29.038A10.8,10.8,0,0,0,44.452,31.5c-.005-.1-.032-.184-.043-.282-.06-.509-.135-1.012-.227-1.516-.016-.168-.054-.341-.087-.514-.1-.574-.217-1.148-.346-1.711l-.016-.081c-.135-.59-.282-1.175-.444-1.749-.038-.157-.087-.325-.13-.482-.13-.46-.271-.909-.411-1.359l-.114-.368c-.179-.552-.363-1.088-.563-1.624-.043-.125-.087-.249-.141-.374-.152-.417-.319-.845-.482-1.256-.06-.141-.119-.282-.179-.428-.211-.509-.417-1-.639-1.489a.622.622,0,0,1-.065-.135c-.206-.449-.411-.888-.623-1.326-.06-.13-.125-.265-.195-.4-.189-.379-.384-.758-.574-1.126l-.141-.254c-.233-.433-.46-.855-.693-1.267l-.179-.325c-.184-.319-.368-.639-.552-.942-.065-.1-.125-.211-.179-.309-.238-.384-.46-.752-.682-1.1-.032-.054-.065-.114-.1-.168-.2-.3-.39-.6-.579-.882-.06-.087-.125-.184-.179-.271-.195-.282-.379-.563-.558-.817-.027-.038-.049-.081-.076-.114-.206-.292-.4-.574-.6-.834L34.5,7.792c-.146-.206-.287-.4-.433-.579L34,7.105A28.616,28.616,0,0,1,59.361,29.168c-4.434-1.5-8.31-1.543-11.466-.13" fill="#d52528" stroke="#fff" stroke-linecap="round" stroke-miterlimit="10" stroke-width="0.75"></path></g></svg> 